#N canvas 224 102 691 606 10;
#X obj 245 219 cnv 15 100 22 empty empty empty 20 12 0 14 -253938 -66577
0;
#X obj 15 75 cnv 15 60 22 empty empty empty 20 12 0 14 -253938 -66577
0;
#X msg 42 229 close;
#X floatatom 46 396 5 0 0 3 a0 - -;
#X floatatom 94 396 5 0 0 3 a1 - -;
#X floatatom 136 404 5 0 0 3 a2 - -;
#N canvas 981 48 499 396 display 0;
#X obj 6 7 inlet;
#X obj 6 28 mapping/resample 100;
#X obj 6 50 outlet;
#X obj 54 50 inlet;
#X obj 54 71 mapping/resample 100;
#X obj 54 93 outlet;
#X obj 103 93 inlet;
#X obj 104 114 mapping/resample 100;
#X obj 103 136 outlet;
#X obj 48 379 receive ARDUINO_TEST_RESET;
#X obj 147 135 inlet;
#X obj 148 156 mapping/resample 100;
#X obj 147 178 outlet;
#X obj 190 178 inlet;
#X obj 191 200 mapping/resample 100;
#X obj 190 221 outlet;
#X obj 234 223 inlet;
#X obj 235 244 mapping/resample 100;
#X obj 234 266 outlet;
#X obj 277 266 inlet;
#X obj 278 287 mapping/resample 100;
#X obj 277 309 outlet;
#X connect 0 0 1 0;
#X connect 1 0 2 0;
#X connect 3 0 4 0;
#X connect 4 0 5 0;
#X connect 6 0 7 0;
#X connect 7 0 8 0;
#X connect 9 0 7 0;
#X connect 9 0 4 0;
#X connect 9 0 1 0;
#X connect 9 0 11 0;
#X connect 9 0 14 0;
#X connect 9 0 17 0;
#X connect 9 0 20 0;
#X connect 10 0 11 0;
#X connect 11 0 12 0;
#X connect 13 0 14 0;
#X connect 14 0 15 0;
#X connect 16 0 17 0;
#X connect 17 0 18 0;
#X connect 19 0 20 0;
#X connect 20 0 21 0;
#X restore 68 368 pd display values without pegging the CPU;
#X obj 432 301 route 0 1 2 3 4 5 6 7 8 9 10 11 12 13;
#X obj 463 323 tgl 15 0 empty ARDUINO_TEST_RESET 2 4 23 1 12 -232448
-1 -1 0 1;
#X obj 480 323 tgl 15 0 empty ARDUINO_TEST_RESET 3 4 23 1 12 -232448
-1 -1 0 1;
#X obj 497 323 tgl 15 0 empty ARDUINO_TEST_RESET 4 4 23 1 12 -232448
-1 -1 0 1;
#X obj 514 323 tgl 15 0 empty ARDUINO_TEST_RESET 5 4 23 1 12 -232448
-1 -1 0 1;
#X obj 531 323 tgl 15 0 empty ARDUINO_TEST_RESET 6 4 23 1 12 -232448
-1 -1 0 1;
#X obj 548 323 tgl 15 0 empty ARDUINO_TEST_RESET 7 4 23 1 12 -232448
-1 -1 0 1;
#X obj 565 323 tgl 15 0 empty ARDUINO_TEST_RESET 8 4 23 1 12 -232448
-1 -1 0 1;
#X obj 582 323 tgl 15 0 empty ARDUINO_TEST_RESET 9 4 23 1 12 -232448
-1 -1 0 1;
#X obj 599 323 tgl 15 0 empty ARDUINO_TEST_RESET 10 0 23 1 12 -232448
-1 -1 0 1;
#X obj 616 323 tgl 15 0 empty ARDUINO_TEST_RESET 11 0 23 1 12 -232448
-1 -1 0 1;
#X obj 633 323 tgl 15 0 empty ARDUINO_TEST_RESET 12 0 23 1 12 -232448
-1 -1 0 1;
#X obj 650 323 tgl 15 0 empty ARDUINO_TEST_RESET 13 0 23 1 12 -232448
-1 -1 0 1;
#X obj 145 242 arduino 1;
#X text 432 351 released under the GNU GPL v2 or later;
#N canvas 419 605 446 317 pinMode 0;
#X obj 94 267 outlet;
#X obj 122 100 vradio 10 1 0 6 THIS_HIDES_THE_OUTLET ARDUINO_TEST_RESET
2 2 -8 0 10 -261682 -1 -1 0;
#X obj 132 100 vradio 10 1 0 6 THIS_HIDES_THE_OUTLET ARDUINO_TEST_RESET
3 2 -8 0 10 -261682 -1 -1 0;
#X obj 142 100 vradio 10 1 0 6 THIS_HIDES_THE_OUTLET ARDUINO_TEST_RESET
4 2 -8 0 10 -261682 -1 -1 0;
#X obj 152 100 vradio 10 1 0 6 THIS_HIDES_THE_OUTLET ARDUINO_TEST_RESET
5 2 -8 0 10 -261682 -1 -1 0;
#X obj 162 100 vradio 10 1 0 6 THIS_HIDES_THE_OUTLET ARDUINO_TEST_RESET
6 2 -8 0 10 -261682 -1 -1 0;
#X obj 172 100 vradio 10 1 0 6 THIS_HIDES_THE_OUTLET ARDUINO_TEST_RESET
7 2 -8 0 10 -261682 -1 -1 0;
#X obj 182 100 vradio 10 1 0 6 THIS_HIDES_THE_OUTLET ARDUINO_TEST_RESET
8 2 -8 0 10 -261682 -1 -1 0;
#X obj 192 100 vradio 10 1 0 6 THIS_HIDES_THE_OUTLET ARDUINO_TEST_RESET
9 2 -8 0 10 -261682 -1 -1 0;
#X obj 202 100 vradio 10 1 0 6 THIS_HIDES_THE_OUTLET ARDUINO_TEST_RESET
10 0 -8 0 8 -261682 -1 -1 0;
#X obj 212 100 vradio 10 1 0 6 THIS_HIDES_THE_OUTLET ARDUINO_TEST_RESET
11 0 -8 0 8 -261682 -1 -1 0;
#X obj 222 100 vradio 10 1 0 6 THIS_HIDES_THE_OUTLET ARDUINO_TEST_RESET
12 0 -8 0 8 -261682 -1 -1 0;
#X obj 232 100 vradio 10 1 0 6 THIS_HIDES_THE_OUTLET ARDUINO_TEST_RESET
13 0 -8 0 8 -261682 -1 -1 0;
#X obj 242 100 vradio 10 1 0 6 THIS_HIDES_THE_OUTLET ARDUINO_TEST_RESET
14 0 -8 0 8 -261682 -1 -1 0;
#X obj 252 100 vradio 10 1 0 6 THIS_HIDES_THE_OUTLET ARDUINO_TEST_RESET
15 0 -8 0 8 -261682 -1 -1 0;
#X obj 262 100 vradio 10 1 0 6 THIS_HIDES_THE_OUTLET ARDUINO_TEST_RESET
16 0 -8 0 8 -261682 -1 -1 0;
#X obj 272 100 vradio 10 1 0 6 THIS_HIDES_THE_OUTLET ARDUINO_TEST_RESET
17 0 -8 0 8 -261682 -1 -1 0;
#X obj 282 100 vradio 10 1 0 6 THIS_HIDES_THE_OUTLET ARDUINO_TEST_RESET
18 0 -8 0 8 -261682 -1 -1 0;
#X obj 292 100 vradio 10 1 0 6 THIS_HIDES_THE_OUTLET ARDUINO_TEST_RESET
19 0 -8 0 8 -261682 -1 -1 0;
#X obj 302 100 vradio 10 1 0 6 THIS_HIDES_THE_OUTLET ARDUINO_TEST_RESET
20 0 -8 0 8 -261682 -1 -1 0;
#X obj 312 100 vradio 10 1 0 6 THIS_HIDES_THE_OUTLET ARDUINO_TEST_RESET
21 0 -8 0 8 -261682 -1 -1 0;
#N canvas 72 484 1069 446 send-to-arduino---------------------- 0;
#X obj 49 14 inlet;
#X obj 89 14 inlet;
#X obj 128 14 inlet;
#X obj 168 14 inlet;
#X obj 208 14 inlet;
#X obj 248 14 inlet;
#X obj 287 14 inlet;
#X obj 327 14 inlet;
#X obj 368 13 inlet;
#X obj 408 13 inlet;
#X obj 447 13 inlet;
#X obj 487 13 inlet;
#X obj 527 13 inlet;
#X msg 49 56 pinMode 0 \$1;
#X msg 89 78 pinMode 1 \$1;
#X msg 128 100 pinMode 2 \$1;
#X msg 168 120 pinMode 3 \$1;
#X msg 208 52 pinMode 4 \$1;
#X msg 248 74 pinMode 5 \$1;
#X msg 287 96 pinMode 6 \$1;
#X msg 327 116 pinMode 7 \$1;
#X msg 368 48 pinMode 8 \$1;
#X msg 408 70 pinMode 9 \$1;
#X msg 447 92 pinMode 10 \$1;
#X msg 487 112 pinMode 11 \$1;
#X msg 527 40 pinMode 12 \$1;
#X obj 566 13 inlet;
#X msg 566 60 pinMode 13 \$1;
#X obj 607 13 inlet;
#X obj 647 13 inlet;
#X obj 687 13 inlet;
#X obj 726 13 inlet;
#X obj 767 13 inlet;
#X obj 807 13 inlet;
#X obj 847 13 inlet;
#X obj 886 13 inlet;
#X msg 607 92 pinMode 14 \$1;
#X msg 647 112 pinMode 15 \$1;
#X msg 687 40 pinMode 16 \$1;
#X msg 726 60 pinMode 17 \$1;
#X msg 767 92 pinMode 18 \$1;
#X msg 807 112 pinMode 19 \$1;
#X msg 847 40 pinMode 20 \$1;
#X msg 886 60 pinMode 21 \$1;
#X obj 927 13 inlet;
#X obj 967 13 inlet;
#X msg 927 92 pinMode 22 \$1;
#X msg 967 112 pinMode 23 \$1;
#X obj 521 427 outlet;
#X obj 481 403 trigger bang anything;
#X obj 481 358 list prepend set;
#X obj 481 380 list trim;
#X obj 481 199 list;
#X obj 481 221 unpack symbol float float;
#X obj 481 331 pack symbol float symbol;
#X obj 622 311 symbol;
#X msg 659 284 analog;
#X msg 707 284 pwm;
#X msg 737 284 servo;
#X obj 739 364 list trim;
#X obj 739 341 list prepend WARNING Unsupported pin mode:;
#X obj 739 386 print [arduino];
#X msg 568 284 input;
#X msg 609 284 output;
#X obj 628 240 - 1;
#X obj 628 259 select 0 1 2 3 4 -1;
#X text 757 258 (-1 == NONE);
#X connect 0 0 13 0;
#X connect 1 0 14 0;
#X connect 2 0 15 0;
#X connect 3 0 16 0;
#X connect 4 0 17 0;
#X connect 5 0 18 0;
#X connect 6 0 19 0;
#X connect 7 0 20 0;
#X connect 8 0 21 0;
#X connect 9 0 22 0;
#X connect 10 0 23 0;
#X connect 11 0 24 0;
#X connect 12 0 25 0;
#X connect 13 0 52 0;
#X connect 14 0 52 0;
#X connect 15 0 52 0;
#X connect 16 0 52 0;
#X connect 17 0 52 0;
#X connect 18 0 52 0;
#X connect 19 0 52 0;
#X connect 20 0 52 0;
#X connect 21 0 52 0;
#X connect 22 0 52 0;
#X connect 23 0 52 0;
#X connect 24 0 52 0;
#X connect 25 0 52 0;
#X connect 26 0 27 0;
#X connect 27 0 52 0;
#X connect 28 0 36 0;
#X connect 29 0 37 0;
#X connect 30 0 38 0;
#X connect 31 0 39 0;
#X connect 32 0 40 0;
#X connect 33 0 41 0;
#X connect 34 0 42 0;
#X connect 35 0 43 0;
#X connect 36 0 52 0;
#X connect 37 0 52 0;
#X connect 38 0 52 0;
#X connect 39 0 52 0;
#X connect 40 0 52 0;
#X connect 41 0 52 0;
#X connect 42 0 52 0;
#X connect 43 0 52 0;
#X connect 44 0 46 0;
#X connect 45 0 47 0;
#X connect 46 0 52 0;
#X connect 47 0 52 0;
#X connect 49 0 48 0;
#X connect 49 1 48 0;
#X connect 50 0 51 0;
#X connect 51 0 49 0;
#X connect 52 0 53 0;
#X connect 53 0 54 0;
#X connect 53 1 54 1;
#X connect 53 2 64 0;
#X connect 54 0 50 0;
#X connect 55 0 54 2;
#X connect 56 0 55 0;
#X connect 57 0 55 0;
#X connect 58 0 55 0;
#X connect 59 0 61 0;
#X connect 60 0 59 0;
#X connect 62 0 55 0;
#X connect 63 0 55 0;
#X connect 64 0 65 0;
#X connect 65 0 62 0;
#X connect 65 1 63 0;
#X connect 65 2 56 0;
#X connect 65 3 57 0;
#X connect 65 4 58 0;
#X connect 65 6 60 0;
#X restore 94 189 pd send-to-arduino----------------------;
#X obj 322 100 vradio 10 1 0 6 THIS_HIDES_THE_OUTLET ARDUINO_TEST_RESET
22 0 -8 0 8 -261682 -1 -1 0;
#X obj 332 100 vradio 10 1 0 6 THIS_HIDES_THE_OUTLET ARDUINO_TEST_RESET
23 0 -8 0 8 -261682 -1 -1 0;
#X obj 100 100 cnv 10 10 60 empty empty Rx 0 23 0 8 -191407 -86277
0;
#X obj 111 100 cnv 10 10 60 empty empty Tx 0 23 0 8 -191407 -13381
0;
#X connect 1 0 21 2;
#X connect 2 0 21 3;
#X connect 3 0 21 4;
#X connect 4 0 21 5;
#X connect 5 0 21 6;
#X connect 6 0 21 7;
#X connect 7 0 21 8;
#X connect 8 0 21 9;
#X connect 9 0 21 10;
#X connect 10 0 21 11;
#X connect 11 0 21 12;
#X connect 12 0 21 13;
#X connect 13 0 21 14;
#X connect 14 0 21 15;
#X connect 15 0 21 16;
#X connect 16 0 21 17;
#X connect 17 0 21 18;
#X connect 18 0 21 19;
#X connect 19 0 21 20;
#X connect 20 0 21 21;
#X connect 21 0 0 0;
#X connect 22 0 21 22;
#X connect 23 0 21 23;
#X coords 0 -1 1 1 242 60 2 100 100;
#X restore 251 157 pd pinMode;
#X text 498 202 servo;
#X text 498 192 pwm;
#X text 498 164 input;
#X text 498 173 output;
#X text 498 183 analog;
#X obj 429 323 tgl 15 0 empty ARDUINO_TEST_RESET 0 4 23 1 12 -232448
-1 -1 0 1;
#X obj 446 323 tgl 15 0 empty ARDUINO_TEST_RESET 1 4 23 1 12 -232448
-1 -1 0 1;
#X text 205 241 <-- argument sets port #;
#X text 238 325 digital inputs show up here -->;
#X text 33 339 analog inputs:;
#X text 498 153 NONE;
#X msg -6 230 open 2;
#X msg 251 221 pinMode 12 input;
#X text 16 6 Use with StandardFirmata 2.1 firmware or newer !!!;
#X obj 145 274 route analog digital;
#X msg 166 152 analogIns 1 1;
#X msg 165 131 analogIns 2 1;
#X msg 162 111 analogIns 3 1;
#X text 500 411 4 toggling to the right;
#X text 499 429 6 toggling to the left;
#X obj 599 371 print;
#X msg 156 67 analogIns 5 1;
#X floatatom 197 504 5 0 0 0 - - -;
#X obj 243 484 t f b;
#X msg 160 90 analogIns 4 1;
#X msg 152 45 analogIns 6 1;
#X msg 148 25 analogIns 7 1;
#X obj -10 28 t b a;
#X obj 144 338 route 1 2 3 4 5 6 7;
#X text 260 417 a6;
#X floatatom 252 403 5 0 0 0 - - -;
#X floatatom 302 407 5 0 0 0 - - -;
#X obj 244 511 -1;
#X floatatom 80 501 5 0 0 0 - - -;
#X obj 126 481 t f b;
#X obj 127 508 1;
#X obj 155 565 cyberbullyToggle;
#X obj 408 58 send;
#X connect 2 0 20 0;
#X connect 6 0 3 0;
#X connect 6 1 4 0;
#X connect 6 2 5 0;
#X connect 6 3 57 0;
#X connect 6 4 46 0;
#X connect 6 5 53 0;
#X connect 6 6 54 0;
#X connect 7 0 28 0;
#X connect 7 1 29 0;
#X connect 7 2 8 0;
#X connect 7 3 9 0;
#X connect 7 4 10 0;
#X connect 7 5 11 0;
#X connect 7 6 12 0;
#X connect 7 7 13 0;
#X connect 7 8 14 0;
#X connect 7 9 15 0;
#X connect 7 10 16 0;
#X connect 7 11 17 0;
#X connect 7 12 18 0;
#X connect 7 13 19 0;
#X connect 18 0 43 0;
#X connect 20 0 37 0;
#X connect 22 0 35 0;
#X connect 34 0 50 0;
#X connect 35 0 20 0;
#X connect 37 0 51 0;
#X connect 37 1 7 0;
#X connect 38 0 20 0;
#X connect 39 0 20 0;
#X connect 40 0 20 0;
#X connect 44 0 20 0;
#X connect 45 0 59 0;
#X connect 46 0 45 0;
#X connect 46 1 55 0;
#X connect 47 0 20 0;
#X connect 48 0 20 0;
#X connect 49 0 20 0;
#X connect 50 0 38 0;
#X connect 50 0 39 0;
#X connect 50 0 40 0;
#X connect 50 0 44 0;
#X connect 50 0 47 0;
#X connect 50 0 48 0;
#X connect 50 0 49 0;
#X connect 50 1 20 0;
#X connect 51 0 6 0;
#X connect 51 1 6 1;
#X connect 51 2 6 2;
#X connect 51 3 6 3;
#X connect 51 4 6 4;
#X connect 51 5 6 5;
#X connect 51 6 6 6;
#X connect 55 0 59 1;
#X connect 56 0 59 0;
#X connect 57 0 56 0;
#X connect 57 1 58 0;
#X connect 58 0 59 1;
