#N canvas 756 294 501 463 10;
#X obj 178 153 tgl 15 0 empty empty empty 17 7 0 10 -262144 -1 -1 0
1;
#X obj 179 192 metro 1000;
#X obj 180 250 + 0;
#X floatatom 180 298 5 0 0 0 - - -;
#X msg 230 259 150;
#X obj 280 162 select 0;
#X msg 278 192 1000;
#X floatatom 277 225 5 0 0 0 - - -;
#X obj 221 285 select 2;
#X floatatom 175 354 5 0 0 0 - - -;
#X obj 280 257 + 2;
#X msg 218 217 set \$1;
#X obj 127 412 send patchNumber;
#X obj 26 54 inlet;
#X msg 183 384 set \$1;
#X msg 123 375 0;
#X obj 28 87 change;
#X obj 106 328 select 0;
#X obj 29 119 select 0;
#X msg 23 148 0;
#X msg 67 146 1;
#X floatatom 41 179 5 0 0 0 - - -;
#X obj 38 207 change;
#X obj 43 246 inlet;
#X obj 180 223 1;
#X obj 175 328 mod 1;
#X connect 0 0 1 0;
#X connect 0 0 5 0;
#X connect 0 0 17 0;
#X connect 1 0 24 0;
#X connect 2 0 3 0;
#X connect 2 0 8 0;
#X connect 3 0 2 1;
#X connect 3 0 11 0;
#X connect 3 0 25 0;
#X connect 4 0 1 1;
#X connect 5 0 6 0;
#X connect 5 0 7 0;
#X connect 6 0 1 1;
#X connect 7 0 10 0;
#X connect 8 0 4 0;
#X connect 9 0 14 0;
#X connect 10 0 8 1;
#X connect 11 0 7 0;
#X connect 13 0 16 0;
#X connect 14 0 15 0;
#X connect 15 0 12 0;
#X connect 16 0 18 0;
#X connect 17 0 15 0;
#X connect 18 0 19 0;
#X connect 18 1 20 0;
#X connect 19 0 21 0;
#X connect 20 0 21 0;
#X connect 21 0 22 0;
#X connect 22 0 0 0;
#X connect 23 0 24 1;
#X connect 24 0 2 0;
#X connect 25 0 9 0;
