#N canvas 52 97 447 745 10;
#X obj 140 209 freeverb~;
#X obj 138 241 dac~;
#X msg 235 180 bypass \$1;
#X obj 235 163 tgl 15 0 empty empty empty 17 7 0 10 -262144 -1 -1 0
1;
#X msg 235 110 wet \$1;
#X msg 234 131 dry \$1;
#X obj 295 114 expr 1-$f1;
#X obj 91 209 adc~;
#X floatatom 64 50 5 0 0 0 --X - -;
#X floatatom 219 50 5 0 0 1 +Y - -;
#X floatatom 104 50 5 0 0 1 +X - -;
#X floatatom 180 50 5 0 0 0 --Y - -;
#X obj 235 78 / 1024;
#X floatatom 290 77 5 0 0 0 - - -;
#X msg 12 120 roomsize \$1;
#X obj 47 73 abs;
#X obj 47 96 / 1024;
#X floatatom 10 94 5 0 0 0 - - -;
#X obj 139 76 / 1024;
#X floatatom 102 74 5 0 0 0 - - -;
#X msg 104 100 damping \$1;
#X msg 27 183 freeze \$1;
#X obj 27 166 tgl 15 0 empty empty empty 17 7 0 10 -262144 -1 -1 0
1;
#X obj 87 15 receive +x;
#X obj -4 15 receive -x;
#X obj 179 22 receive -y;
#X obj 284 21 receive +y;
#X connect 0 0 1 0;
#X connect 0 0 1 1;
#X connect 2 0 0 0;
#X connect 3 0 2 0;
#X connect 4 0 0 0;
#X connect 5 0 0 0;
#X connect 6 0 5 0;
#X connect 7 0 0 0;
#X connect 8 0 15 0;
#X connect 9 0 12 0;
#X connect 10 0 18 0;
#X connect 12 0 4 0;
#X connect 12 0 6 0;
#X connect 12 0 13 0;
#X connect 14 0 0 0;
#X connect 15 0 16 0;
#X connect 16 0 17 0;
#X connect 16 0 14 0;
#X connect 18 0 19 0;
#X connect 18 0 20 0;
#X connect 20 0 0 0;
#X connect 21 0 0 0;
#X connect 22 0 21 0;
#X connect 23 0 10 0;
#X connect 24 0 8 0;
#X connect 25 0 11 0;
#X connect 26 0 9 0;
