#N canvas 893 432 585 413 10;
#N canvas 522 443 450 300 patchArea 1;
#X obj 100 100 effect-patch1;
#X restore 378 78 pd patchArea;
#X msg 200 184 \; pd-patchArea clear;
#X obj 150 188 % 2;
#X obj 116 212 + 1;
#X floatatom 148 85 5 0 0 0 - - -;
#X obj 148 124 t b f b;
#X msg 393 238 \; pd dsp \$1;
#X obj 393 205 tgl 15 0 empty empty empty 17 7 0 10 -262144 -1 -1 1
1;
#X msg 393 180 0;
#X msg 360 181 1;
#X msg 358 311 \; pd-patchArea loadbang;
#X obj 149 8 inlet;
#X obj 149 42 + 0;
#X obj 251 22 inlet;
#X msg 73 8 5;
#X msg 108 8 -5;
#X msg 117 258 \; pd-patchArea obj 100 100 effect-patch\$1;
#X floatatom 115 234 5 0 0 0 - - -;
#X obj 13 52 receive patchNumber;
#X connect 2 0 3 0;
#X connect 3 0 17 0;
#X connect 4 0 12 1;
#X connect 4 0 5 0;
#X connect 5 0 9 0;
#X connect 5 1 2 0;
#X connect 5 2 1 0;
#X connect 5 2 8 0;
#X connect 7 0 6 0;
#X connect 8 0 7 0;
#X connect 9 0 7 0;
#X connect 9 0 10 0;
#X connect 11 0 12 0;
#X connect 12 0 4 0;
#X connect 13 0 2 1;
#X connect 14 0 12 0;
#X connect 15 0 12 0;
#X connect 17 0 16 0;
