#N canvas 913 161 450 300 10;
#X obj 122 10 adc~;
#X obj 39 54 *~ 40;
#X obj 41 93 clip~ -0.5 0.5;
#X obj 43 147 dac~;
#X obj 32 2 receive~ balls;
#X connect 1 0 2 0;
#X connect 2 0 3 0;
#X connect 2 0 3 1;
#X connect 4 0 1 0;
