#N canvas 817 81 525 358 10;
#X floatatom 294 136 5 0 0 0 - - -;
#X obj 246 145 + 0;
#X obj 246 190 moses 0;
#X obj 330 32 tgl 15 0 empty empty empty 17 7 0 10 -262144 -1 -1 1
1;
#X msg 264 74 -1;
#X obj 331 3 loadbang;
#X obj 187 10 inlet;
#X obj 264 9 inlet;
#X obj 312 199 outlet;
#X obj 309 166 change;
#X obj 186 74 change;
#X obj 330 53 metro 1;
#X obj 80 33 tgl 15 0 empty empty empty 17 7 0 10 -262144 -1 -1 1 1
;
#X obj 81 4 loadbang;
#X obj 77 63 metro 1;
#X floatatom 99 139 5 0 0 0 - - -;
#X obj 71 194 outlet;
#X obj 72 162 change;
#X obj 150 138 + 0;
#X msg 86 89 1;
#X obj 139 184 moses 1;
#X obj 117 223 moses -1024;
#X obj 259 225 moses 1024;
#X obj 207 106 moses 0;
#X obj 150 106 moses 1;
#X connect 0 0 1 1;
#X connect 0 0 9 0;
#X connect 1 0 2 0;
#X connect 2 1 22 0;
#X connect 3 0 11 0;
#X connect 4 0 1 0;
#X connect 5 0 3 0;
#X connect 6 0 10 0;
#X connect 7 0 11 1;
#X connect 7 0 14 1;
#X connect 9 0 8 0;
#X connect 10 0 23 0;
#X connect 10 0 24 0;
#X connect 11 0 4 0;
#X connect 12 0 14 0;
#X connect 13 0 12 0;
#X connect 14 0 19 0;
#X connect 15 0 17 0;
#X connect 15 0 18 1;
#X connect 17 0 16 0;
#X connect 18 0 20 0;
#X connect 19 0 18 0;
#X connect 20 0 21 0;
#X connect 21 1 15 0;
#X connect 22 0 0 0;
#X connect 23 1 1 0;
#X connect 24 0 18 0;
