#N canvas 24 197 172 236 10;
#X obj 47 120 hid;
#X msg 23 99 open mouse 1;
#X msg 47 80 poll 10;
#X obj 47 140 route rel;
#X obj 47 160 route rel_x rel_y;
#X obj 47 38 del 100;
#X obj 47 59 del 100;
#X obj 45 193 outlet;
#X obj 95 194 outlet;
#X obj 49 13 inlet;
#X connect 0 0 3 0;
#X connect 1 0 0 0;
#X connect 2 0 0 0;
#X connect 3 0 4 0;
#X connect 4 0 7 0;
#X connect 4 1 8 0;
#X connect 5 0 1 0;
#X connect 5 0 6 0;
#X connect 6 0 2 0;
#X connect 9 0 5 0;
