#N canvas 450 24 306 420 10;
#X floatatom 95 64 4 0 0 1 Y - -;
#X floatatom 61 65 4 0 0 0 X - -;
#X floatatom 21 122 5 0 0 0 --X - -;
#X floatatom 176 122 5 0 0 1 +Y - -;
#X floatatom 140 63 4 1 10 1 Fade - -;
#X obj 61 17 loadbang;
#X msg 140 8 \; pd dsp 1;
#X msg 208 8 \; pd dsp 0;
#X obj 61 41 mouse_in;
#X floatatom 61 122 5 0 0 1 +X - -;
#X floatatom 137 122 5 0 0 0 --Y - -;
#X obj 124 94 leaky_bucketv2;
#X msg 140 42 set 1;
#X obj 21 93 leaky_bucketv2;
#X obj 12 163 send -x;
#X obj 68 161 send +x;
#X obj 131 163 send -y;
#X obj 184 164 send +y;
#X connect 0 0 11 0;
#X connect 1 0 13 0;
#X connect 2 0 14 0;
#X connect 3 0 17 0;
#X connect 4 0 11 1;
#X connect 4 0 13 1;
#X connect 5 0 8 0;
#X connect 5 0 6 0;
#X connect 5 0 12 0;
#X connect 8 0 1 0;
#X connect 8 1 0 0;
#X connect 9 0 15 0;
#X connect 10 0 16 0;
#X connect 11 0 10 0;
#X connect 11 1 3 0;
#X connect 12 0 4 0;
#X connect 13 0 2 0;
#X connect 13 1 9 0;
