#N canvas 869 62 450 300 10;
#X obj 178 13 tgl 15 0 empty empty empty 17 7 0 10 -262144 -1 -1 0
1;
#X obj 179 52 metro 1000;
#X obj 180 115 + 0;
#X msg 179 79 1;
#X floatatom 180 158 5 0 0 0 - - -;
#X msg 230 119 150;
#X obj 280 22 select 0;
#X msg 278 52 1000;
#X floatatom 277 85 5 0 0 0 - - -;
#X obj 221 145 select 2;
#X floatatom 175 214 5 0 0 0 - - -;
#X obj 280 117 + 2;
#X msg 218 77 set \$1;
#X obj 175 188 mod 99;
#X obj 180 247 send patchNumber;
#X connect 0 0 1 0;
#X connect 0 0 6 0;
#X connect 1 0 3 0;
#X connect 2 0 4 0;
#X connect 2 0 9 0;
#X connect 3 0 2 0;
#X connect 4 0 2 1;
#X connect 4 0 12 0;
#X connect 4 0 13 0;
#X connect 5 0 1 1;
#X connect 6 0 7 0;
#X connect 6 0 8 0;
#X connect 7 0 1 1;
#X connect 8 0 11 0;
#X connect 9 0 5 0;
#X connect 10 0 14 0;
#X connect 11 0 9 1;
#X connect 12 0 8 0;
#X connect 13 0 10 0;
